<svg id="Layer_1" data-name="Layer 1" width="120" height="70" xmlns="http://www.w3.org/2000/svg" xmlns:xlink="http://www.w3.org/1999/xlink" viewBox="0 0 280.99 165.02"><defs><style>.cls-1,.cls-3{fill:none;}.cls-2{clip-path:url(#clip-path);}.cls-3,.cls-4,.cls-5{stroke:#62ba46;stroke-miterlimit:3.86;}.cls-3{stroke-width:0.65px;}.cls-4,.cls-5{fill:#62ba46;stroke-width:0;}.cls-4{fill-rule:evenodd;}.cls-6{fill:#034ea1;}</style><clipPath id="clip-path"><rect class="cls-1" x="-6.61" width="452.07" height="173.28"/></clipPath></defs><g class="cls-2"><line class="cls-3" x1="79.92" y1="121.31" x2="358.28" y2="-157.06"/><line class="cls-3" x1="83.13" y1="124.6" x2="364.79" y2="-157.06"/><line class="cls-3" x1="86.51" y1="127.73" x2="371.29" y2="-157.06"/><line class="cls-3" x1="89.61" y1="130.98" x2="377.7" y2="-157.06"/><line class="cls-3" x1="92.98" y1="134.27" x2="384.31" y2="-157.06"/><line class="cls-3" x1="96.16" y1="137.44" x2="390.71" y2="-157.06"/><line class="cls-3" x1="99.5" y1="140.77" x2="397.32" y2="-157.06"/><line class="cls-3" x1="102.71" y1="144.06" x2="403.83" y2="-157.06"/><line class="cls-3" x1="105.93" y1="147.19" x2="410.24" y2="-157.06"/><line class="cls-3" x1="109.14" y1="150.48" x2="416.75" y2="-157.06"/><line class="cls-3" x1="112.48" y1="153.81" x2="423.35" y2="-157.06"/><line class="cls-3" x1="115.74" y1="157.06" x2="429.85" y2="-157.06"/><line class="cls-3" x1="118.95" y1="160.35" x2="436.36" y2="-157.06"/><line class="cls-3" x1="76.7" y1="117.93" x2="351.72" y2="-157.06"/><line class="cls-3" x1="73.44" y1="114.77" x2="345.27" y2="-157.06"/><line class="cls-3" x1="70.74" y1="110.97" x2="338.76" y2="-157.06"/><line class="cls-3" x1="66.93" y1="108.27" x2="332.26" y2="-157.06"/><line class="cls-3" x1="63.71" y1="104.98" x2="325.75" y2="-157.06"/><line class="cls-3" x1="60.5" y1="101.69" x2="319.25" y2="-157.06"/><line class="cls-3" x1="57.16" y1="98.52" x2="312.74" y2="-157.06"/><line class="cls-3" x1="53.95" y1="95.23" x2="306.23" y2="-157.06"/><line class="cls-3" x1="50.65" y1="91.93" x2="299.66" y2="-157.06"/><line class="cls-3" x1="47.43" y1="88.65" x2="293.16" y2="-157.06"/><line class="cls-3" x1="44.2" y1="85.45" x2="286.71" y2="-157.06"/><line class="cls-3" x1="40.96" y1="82.18" x2="280.21" y2="-157.06"/><line class="cls-3" x1="37.7" y1="78.93" x2="273.7" y2="-157.06"/><polygon class="cls-4" points="140 54.71 91.83 102.88 116.93 82.06 113.77 82.06 115.99 80.75 117.84 78.9 119.13 76.68 119.13 80.88 140 54.71 140 54.71"/><polygon class="cls-4" points="88.61 99.64 109.89 82.06 107.18 82.06 109.5 80.56 117.91 72.17 119.13 70.06 119.13 73.79 136.81 51.41 88.61 99.64 88.61 99.64"/><polygon class="cls-4" points="82.12 93.15 95.67 82.06 93.95 82.06 95.17 81.3 117.91 58.6 119.13 56.94 119.13 59.13 129.92 45.26 82.12 93.15 82.12 93.15"/><polygon class="cls-4" points="78.82 89.89 88.62 82.06 87.47 82.06 88.38 81.47 118 51.85 119.15 50.29 119.15 51.84 126.7 42.01 78.82 89.89 78.82 89.89"/><polygon class="cls-4" points="95.1 106.22 117.43 87.64 119.09 84.67 119.09 87.27 124.38 82.06 122.2 82.06 125.72 80.06 143.27 58.04 95.1 106.22 95.1 106.22"/><polygon class="cls-4" points="98.37 109.53 117.99 93.11 119.08 90.86 119.09 93.31 130.31 82.09 128.29 82.09 131.22 80.39 146.53 61.35 98.37 109.53 98.37 109.53"/><polygon class="cls-4" points="101.51 112.78 118.03 99.05 119.1 96.96 119.1 99.16 136.14 82.06 134.51 82.06 136.92 80.73 149.78 64.58 101.51 112.78 101.51 112.78"/><polygon class="cls-4" points="104.71 115.99 118.28 104.86 119.09 103.19 119.09 105.01 142.06 82.11 140.33 82.11 142.65 80.84 152.99 67.74 104.71 115.99 104.71 115.99"/><polygon class="cls-4" points="108.07 119.18 118.32 110.79 119.09 109.35 119.09 110.81 147.88 82.06 146.58 82.06 148.49 80.9 156.24 71.03 108.07 119.18 108.07 119.18"/><polygon class="cls-4" points="111.29 122.43 118.29 116.74 119.09 115.42 119.09 116.55 153.65 82.09 152.66 82.12 153.88 81.47 159.56 74.22 111.29 122.43 111.29 122.43"/><polygon class="cls-5" points="114.63 125.67 118.66 122.38 119.09 121.51 119.09 122.4 159.44 82.07 158.81 82.07 159.6 81.64 162.77 77.53 114.63 125.67 114.63 125.67"/><polygon class="cls-4" points="75.53 86.64 81.44 82.06 80.93 82.06 119.15 43.79 119.15 44.39 123.41 38.81 75.53 86.64 75.53 86.64"/><polygon class="cls-4" points="85.33 96.41 102.79 82.06 100.6 82.06 102.39 80.88 117.96 65.41 119.15 63.5 119.15 66.29 133.22 48.52 85.33 96.41 85.33 96.41"/><line class="cls-3" x1="34.41" y1="75.65" x2="267.12" y2="-157.06"/><line class="cls-3" x1="31.11" y1="72.36" x2="260.55" y2="-157.06"/><line class="cls-3" x1="27.85" y1="69.11" x2="254.03" y2="-157.06"/><line class="cls-3" x1="24.64" y1="65.9" x2="247.6" y2="-157.06"/><path class="cls-6" d="M205.3,115.12c0-3.63-1.17-6.47-4.06-6.47H199.5v16.76l-4.35,0V104.72h5.68c6.5-.22,8.83,4.44,9.13,10.32,0,5.41-2.77,10.69-9.13,10.39h-3.77v-4h4.15c2.92.16,4.09-2.9,4.09-6.28Z"/><path class="cls-6" d="M165,114.88c0,3.93-1,7-3.45,6.94s-3.43-3-3.43-6.91,1-6.85,3.43-6.8S165,111,165,114.42h4.58c-.17-5.76-2.87-10.26-8-10.15-5.31-.11-8,4.63-8,10.67s2.92,10.94,8,10.86c5.09.08,8-4.88,8-10.92s-2.77-10.75-8.07-10.64v3.87c2.46,0,3.55,2.6,3.47,6.77Z"/><path class="cls-6" d="M222.35,115c0,3.93-1,7-3.44,6.94s-3.44-3-3.44-6.91,1-6.85,3.44-6.8,3.41,2.87,3.47,6.31H227c-.17-5.76-2.88-10.26-8-10.15-5.31-.11-8,4.63-8,10.67s2.93,10.94,8,10.86c5.09.08,8-4.88,8-10.92s-2.77-10.74-8.08-10.64v3.87c2.47-.05,3.55,2.61,3.47,6.77Z"/><polygon class="cls-6" points="171.39 104.66 175.86 104.66 175.86 121.21 180.93 121.21 180.93 125.41 171.39 125.41 171.39 104.66 171.39 104.66"/><polygon class="cls-6" points="142.31 104.69 153.61 104.69 153.61 108.81 150.17 108.81 150.17 125.41 145.73 125.41 145.73 108.81 142.31 108.81 142.31 104.69 142.31 104.69"/><polygon class="cls-6" points="182.81 104.69 192.75 104.69 192.75 108.62 187.26 108.62 187.26 112.49 192.75 112.49 192.75 116.39 187.26 116.39 187.26 121.35 192.75 121.35 192.75 125.41 182.81 125.41 182.81 104.69 182.81 104.69"/><polygon class="cls-6" points="34.67 104.66 46.04 104.66 46.04 108.78 42.6 108.78 42.6 125.38 38.16 125.38 38.16 108.78 34.67 108.78 34.67 104.66 34.67 104.66"/><polygon class="cls-6" points="59.29 104.62 63.76 104.62 63.76 121.18 68.83 121.18 68.83 125.38 59.29 125.38 59.29 104.62 59.29 104.62"/><polygon class="cls-6" points="23.84 104.66 33.78 104.66 33.78 108.58 28.28 108.58 28.28 112.46 33.78 112.46 33.78 116.36 28.28 116.36 28.28 121.31 33.78 121.31 33.78 125.38 23.84 125.38 23.84 104.66 23.84 104.66"/><polygon class="cls-6" points="12.56 117.71 15.6 104.66 21.82 104.66 21.82 125.38 17.55 125.38 17.55 110.26 14.24 125.38 10.91 125.38 7.47 110.21 7.47 125.38 3.14 125.38 3.14 104.66 9.42 104.66 12.56 117.71 12.56 117.71"/><path class="cls-6" d="M88.49,108.45H86.38v17H81.89V104.69l7.31,0c3.49-.19,6,3,6,6.55-.16,3-1.6,4.87-4.17,5.69l5.36,8.48H91.23L84.41,113.7h4a2.48,2.48,0,0,0,2.41-2.62,2.41,2.41,0,0,0-2.31-2.63Z"/><polygon class="cls-6" points="46.87 104.66 58.17 104.66 58.17 108.78 54.73 108.78 54.73 125.38 50.29 125.38 50.29 108.78 46.87 108.78 46.87 104.66 46.87 104.66"/><polygon class="cls-6" points="70.1 104.66 80.04 104.66 80.04 108.58 74.54 108.58 74.54 112.46 80.04 112.46 80.04 116.36 74.54 116.36 74.54 121.31 80.04 121.31 80.04 125.38 70.1 125.38 70.1 104.66 70.1 104.66"/></g></svg>